:SAMPLES-PER-SECOND 24
:FULLY-SPECIFIED
:DEGREES
532
root  -3.72459 38.381 31.981 174.139 50.8668 178.416
RightUpLeg  7.37534 -11.5448 -12.5645
RightLeg  23.3265 4.75866 2.03119
RightFoot  -18.7564 0.574827 10.8108
RightToes  -1.74623e-010 0 -2.59999e-017
Spine  3.03173 0.665351 3.08591
Spine1  18.3754 0.930308 -1.22987
HEad  -7.37712 43.2956 -26.9528
LeftShoulder1  1.69275 -2.29288 -22.9132
LeftArm  5.59968 13.5322 -37.9755
LeftForeArm  46.3014 -59.9826 -15.1567
LeftHand  -0.0827987 6.73705 -3.56959
RightShoulder  2.28021 4.00166 24.2804
RightArm  1.40223 -1.81453 40.6997
RightForeArm  103.882 77.4035 120.832
RightHand  0.539378 -14.7072 -7.42889
LeftUpLeg  -13.7602 21.9592 11.0346
LeftLeg  35.814 -1.0203 -0.418743
LeftFoot  -2.58909 0.758044 -9.68701
LeftToes  -6.27559e-011 -2.10356e-011 8.24929e-012
533
root  -3.82683 38.4786 31.9962 174.976 47.2256 178.455
RightUpLeg  7.03298 -14.2386 -12.9951
RightLeg  23.9887 4.06226 1.75028
RightFoot  -17.9554 0.532272 11.3049
RightToes  -1.74623e-010 0 -2.59999e-017
Spine  3.6018 0.135622 2.81105
Spine1  17.6478 0.442645 -0.816343
HEad  -5.51697 42.2892 -24.4823
LeftShoulder1  1.65915 -2.30286 -22.252
LeftArm  -1.71053 11.9049 -43.9747
LeftForeArm  63.0219 -58.5849 -12.8041
LeftHand  -0.0126782 8.86507 0.557174
RightShoulder  2.61964 4.51201 26.6894
RightArm  -3.73998 -0.205509 44.9194
RightForeArm  92.34 78.9095 105.707
RightHand  1.88253 -15.9962 -20.7615
LeftUpLeg  -20.1339 21.6524 10.2357
LeftLeg  41.6646 -3.74881 -3.13901
LeftFoot  5.29618 1.44645 -10.0909
LeftToes  -6.27559e-011 -2.10356e-011 8.24929e-012
534
root  -3.78672 38.8617 31.773 175.417 45.0741 178.416
RightUpLeg  8.94956 -16.3868 -13.7135
RightLeg  20.6696 4.271 1.53317
RightFoot  -15.3145 0.321545 12.2652
RightToes  -1.74623e-010 0 -2.59999e-017
Spine  3.94973 1.07519 3.41641
Spine1  17.0848 1.89374 -1.71431
HEad  -3.65146 39.1464 -19.9145
LeftShoulder1  1.54982 -2.37314 -19.8986
LeftArm  -1.80224 12.9266 -48.8005
LeftForeArm  55.8295 -62.5029 -16.1726
LeftHand  0.437648 10.2306 12.3792
RightShoulder  2.81263 4.87979 27.5864
RightArm  -8.5268 -3.06434 48.4056
RightForeArm  104.92 77.6541 119.455
RightHand  1.65629 -12.1381 -27.8548
LeftUpLeg  -21.135 23.1305 9.74695
LeftLeg  37.9871 -5.23893 -3.95275
LeftFoot  7.11883 1.65811 -10.4552
LeftToes  -6.27559e-011 -2.10356e-011 8.24929e-012
535
root  -3.66319 39.3201 31.3926 176.179 43.9887 178.634
RightUpLeg  11.5764 -13.3045 -12.6835
RightLeg  14.5436 -0.607864 0.823238
RightFoot  -11.2768 -0.0827306 12.424
RightToes  -1.74623e-010 0 -2.59999e-017
Spine  3.50385 2.44994 3.62442
Spine1  17.3122 3.59854 -2.46698
HEad  -2.94782 36.1238 -17.0136
LeftShoulder1  1.4787 -2.18985 -19.4723
LeftArm  2.55987 13.2235 -48.3501
LeftForeArm  42.2978 -67.9785 -23.7659
LeftHand  0.149033 6.73392 13.0245
RightShoulder  2.86215 5.00791 27.6628
RightArm  -8.65957 -4.32375 48.1488
RightForeArm  112.996 75.4444 131.822
RightHand  0.608335 -7.80995 -28.6623
LeftUpLeg  -19.0031 26.3471 9.27183
LeftLeg  27.066 -1.46705 -0.521989
LeftFoot  5.86379 1.43519 -9.69647
LeftToes  -6.27559e-011 -2.10356e-011 8.24929e-012
536
root  -3.59091 39.418 30.8077 176.303 42.0261 178.352
RightUpLeg  13.9068 -10.6853 -12.6853
RightLeg  11.1836 -5.10385 0.873186
RightFoot  -9.97395 -0.230211 13.5278
RightToes  -1.74623e-010 0 -2.59999e-017
Spine  3.16761 2.88325 3.15067
Spine1  17.0478 4.36247 -3.38402
HEad  -2.02721 34.2557 -14.1687
LeftShoulder1  1.40485 -2.05296 -18.728
LeftArm  4.02955 14.1702 -47.9372
LeftForeArm  42.2538 -72.6312 -33.0907
LeftHand  -0.033739 4.68411 1.60869
RightShoulder  2.78251 4.90695 27.1001
RightArm  -5.04327 -3.35755 46.1061
RightForeArm  115.72 74.7697 134.681
RightHand  -0.040097 -5.23287 -26.5576
LeftUpLeg  -16.9706 28.4015 7.98178
LeftLeg  18.0555 5.89289 2.4588
LeftFoot  7.18043 1.32605 -8.39098
LeftToes  -6.27559e-011 -2.10356e-011 8.24929e-012
537
root  -3.61945 39.1693 30.1053 176.016 39.7476 178.191
RightUpLeg  16.1016 -11.3046 -14.0704
RightLeg  10.4506 -5.75914 1.20574
RightFoot  -10.9364 -0.130667 15.5793
RightToes  -1.74623e-010 0 -2.59999e-017
Spine  3.27484 2.77276 2.03076
Spine1  16.93 4.30387 -3.69412
HEad  -1.54736 33.1081 -12.59
LeftShoulder1  1.36587 -2.09601 -17.7658
LeftArm  4.16517 15.426 -48.6774
LeftForeArm  50.402 -75.6157 -41.8146
LeftHand  0.070637 3.35449 -5.41511
RightShoulder  2.55288 4.54961 25.6592
RightArm  -0.614788 -0.467667 43.196
RightForeArm  118.341 75.4902 132.802
RightHand  -0.335925 -3.55659 -20.7093
LeftUpLeg  -15.2452 26.6546 7.77762
LeftLeg  15.3473 11.4725 2.41313
LeftFoot  7.94256 1.14418 -7.00668
LeftToes  -6.27559e-011 -2.10356e-011 8.24929e-012
538
root  -3.7214 38.7976 29.3915 176.516 37.0799 178.997
RightUpLeg  17.1744 -12.9214 -14.4943
RightLeg  11.768 -6.3685 0.415339
RightFoot  -11.9184 0.000850985 16.4581
RightToes  -1.74623e-010 0 -2.59999e-017
Spine  3.04107 2.56668 0.126974
Spine1  18.1056 3.44068 -1.99772
HEad  -3.00074 32.0134 -13.2585
LeftShoulder1  1.35457 -1.90959 -18.455
LeftArm  5.76049 14.0337 -48.4478
LeftForeArm  55.8978 -76.3488 -43.7032
LeftHand  0.00244245 4.46188 -2.52099
RightShoulder  2.38318 4.27555 24.5482
RightArm  3.03531 4.1454 38.8856
RightForeArm  111.982 77.7629 121.301
RightHand  -0.366858 -2.27133 -13.4068
LeftUpLeg  -16.5688 28.5337 6.20587
LeftLeg  17.5372 7.14175 2.24376
LeftFoot  5.77611 0.662852 -4.60239
LeftToes  -6.27559e-011 -2.10356e-011 8.24929e-012
539
root  -3.87442 38.5012 28.6519 176.563 32.4451 179.139
RightUpLeg  17.3854 -18.2201 -16.6279
RightLeg  16.7536 -3.37673 -0.968452
RightFoot  -12.9202 0.198372 19.9135
RightToes  -1.74623e-010 0 -2.59999e-017
Spine  3.34477 2.03304 -1.94385
Spine1  19.4412 2.57706 -1.35016
HEad  -5.30948 29.3334 -12.0915
LeftShoulder1  1.33577 -1.73696 -18.9442
LeftArm  8.41801 9.63568 -48.5148
LeftForeArm  57.8127 -74.2368 -34.2358
LeftHand  -0.0422604 7.72521 -0.0751115
RightShoulder  2.38752 4.34468 24.3192
RightArm  4.44822 5.56728 36.5708
RightForeArm  79.5398 79.6669 84.4507
RightHand  -0.237988 -2.33606 -8.65591
LeftUpLeg  -19.1601 25.1972 4.22242
LeftLeg  21.904 5.55193 2.82692
LeftFoot  3.06634 0.317304 -2.65234
LeftToes  -6.27559e-011 -2.10356e-011 8.24929e-012
540
root  -4.06612 38.3843 27.8084 175.773 27.6501 178.283
RightUpLeg  15.1817 -20.294 -19.3061
RightLeg  26.617 -3.54462 -2.15465
RightFoot  -10.4814 -0.262714 25.0317
RightToes  -1.74623e-010 0 -2.59999e-017
Spine  4.7326 1.82788 -2.54008
Spine1  19.4922 3.18834 -4.09572
HEad  -6.26387 25.0059 -7.77425
LeftShoulder1  1.3642 -2.00728 -18.1581
LeftArm  10.6223 5.28602 -49.4428
LeftForeArm  65.3631 -70.6367 -24.3779
LeftHand  -0.122303 8.32618 -2.85744
RightShoulder  2.42063 4.46351 24.2779
RightArm  3.56025 1.9717 38.7623
RightForeArm  39.1366 74.057 38.5747
RightHand  -0.122571 -3.7292 -7.5141
LeftUpLeg  -19.6877 19.5923 2.21598
LeftLeg  24.5171 6.38241 3.51076
LeftFoot  1.3542 0.264124 -2.44843
LeftToes  -6.27559e-011 -2.10356e-011 8.24929e-012
541
root  -4.21431 38.4426 26.9448 175.825 25.349 177.995
RightUpLeg  7.88867 -18.6395 -19.1103
RightLeg  40.1768 -7.51393 -7.0606
RightFoot  -0.474031 -1.9682 21.1787
RightToes  -1.74623e-010 0 -2.59999e-017
Spine  5.74989 2.56457 -2.41272
Spine1  18.4839 4.6728 -6.83575
HEad  -6.20492 21.2594 -4.31624
LeftShoulder1  1.4339 -2.27397 -18.2286
LeftArm  11.1148 4.05985 -49.0786
LeftForeArm  68.9968 -68.8762 -21.2429
LeftHand  -0.0934961 7.52223 -2.65888
RightShoulder  2.42945 4.48689 24.3007
RightArm  2.29481 -1.16902 42.8586
RightForeArm  25.7181 60.6545 17.8533
RightHand  -0.091732 -4.47727 -9.37792
LeftUpLeg  -18.886 17.3268 0.972931
LeftLeg  24.6102 6.14055 3.4091
LeftFoot  -0.102703 0.216167 -2.18734
LeftToes  -6.27559e-011 -2.10356e-011 8.24929e-012
